<svg width="29" height="22" viewBox="0 0 29 22" fill="none" xmlns="http://www.w3.org/2000/svg">
<path fill-rule="evenodd" clip-rule="evenodd" d="M0.090625 2.94344C0.273358 2.14275 0.722563 1.42785 1.36467 0.915809C2.00678 0.403769 2.80373 0.124945 3.625 0.125H25.375C26.1963 0.124945 26.9932 0.403769 27.6353 0.915809C28.2774 1.42785 28.7266 2.14275 28.9094 2.94344L14.5 11.7504L0.090625 2.94344ZM0 5.01331V17.8893L10.5179 11.4404L0 5.01331ZM12.2543 12.5044L0.346188 19.8033C0.640404 20.4237 1.10477 20.9478 1.68523 21.3145C2.26569 21.6813 2.93838 21.8757 3.625 21.875H25.375C26.0615 21.8752 26.7339 21.6804 27.3141 21.3133C27.8942 20.9462 28.3582 20.422 28.652 19.8015L16.7439 12.5026L14.5 13.8746L12.2543 12.5026V12.5044ZM18.4821 11.4423L29 17.8893V5.01331L18.4821 11.4404V11.4423Z" fill="currentColor"/>
</svg>
