<svg width="23" height="23" viewBox="0 0 23 23" fill="none" xmlns="http://www.w3.org/2000/svg">
<path fill-rule="evenodd" clip-rule="evenodd" d="M12.0208 14.8493L13.435 16.2635L10.6066 19.0919C8.65398 21.0446 5.48816 21.0446 3.53553 19.0919C1.58291 17.1393 1.58291 13.9735 3.53553 12.0209L6.36396 9.19244L7.77817 10.6066L4.94975 13.4351C3.77817 14.6066 3.77817 16.5061 4.94975 17.6777C6.12132 18.8493 8.02082 18.8493 9.19239 17.6777L12.0208 14.8493ZM10.6066 7.77822L9.19239 6.36401L12.0208 3.53558C13.9734 1.58296 17.1393 1.58296 19.0919 3.53558C21.0445 5.4882 21.0445 8.65403 19.0919 10.6066L16.2635 13.4351L14.8492 12.0209L17.6777 9.19244C18.8492 8.02086 18.8492 6.12137 17.6777 4.94979C16.5061 3.77822 14.6066 3.77822 13.435 4.94979L10.6066 7.77822ZM14.1421 7.07112L7.07107 14.1422L8.48528 15.5564L15.5563 8.48533L14.1421 7.07112Z" fill="currentColor"/>
</svg>
