<svg width="37" height="27" viewBox="0 0 37 27" fill="none" xmlns="http://www.w3.org/2000/svg">
<path d="M0.199623 20.2892L0.245739 20.5922L0.293694 20.5814C0.621445 22.08 1.37647 23.4573 2.47141 24.5538C3.56634 25.6504 4.95644 26.4214 6.48086 26.7777C8.00527 27.1339 9.6017 27.0609 11.0854 26.567C12.5692 26.0731 13.8795 25.1785 14.8649 23.9867C15.8504 22.795 16.4705 21.3548 16.6537 19.8328C16.8369 18.3108 16.5756 16.7692 15.9 15.3863C15.2245 14.0035 14.1623 12.8359 12.8364 12.0187C11.5104 11.2015 9.97496 10.7681 8.40761 10.7686C7.99628 10.7686 7.60156 10.8299 7.20869 10.8858C7.33596 10.4674 7.46692 10.0418 7.67719 9.65948C7.88746 9.104 8.21578 8.62247 8.54225 8.13733C8.81524 7.61252 9.29665 7.25723 9.65079 6.80817C10.0215 6.37172 10.5269 6.08136 10.9272 5.71886C11.3201 5.34013 11.8347 5.15076 12.2441 4.88384C12.6721 4.64398 13.0447 4.37887 13.4431 4.25262L14.4372 3.85225L15.3115 3.49696L14.4188 1.90735e-06L13.3176 0.259705C12.9653 0.346272 12.5356 0.447268 12.0468 0.5681C11.5469 0.658276 11.0139 0.905354 10.4199 1.13079C9.83524 1.38869 9.15462 1.56002 8.52381 1.97301C7.8893 2.36617 7.15704 2.69441 6.51147 3.22103C5.88619 3.76388 5.13179 4.23459 4.57476 4.92352C3.96608 5.56917 3.36477 6.24728 2.89811 7.01917C2.35768 7.75499 1.99063 8.56296 1.60328 9.3619C1.25283 10.1608 0.970623 10.9778 0.740059 11.7714C0.302917 13.362 0.107399 14.8734 0.0317764 16.1665C-0.0309372 17.4614 0.00595093 18.538 0.0834198 19.3171C0.109341 19.6425 0.148106 19.9668 0.199623 20.2892ZM20.489 20.2892L20.5351 20.5922L20.5831 20.5814C20.9108 22.08 21.6659 23.4573 22.7608 24.5538C23.8557 25.6504 25.2458 26.4214 26.7702 26.7777C28.2947 27.1339 29.8911 27.0609 31.3748 26.567C32.8585 26.0731 34.1689 25.1785 35.1543 23.9867C36.1398 22.795 36.7599 21.3548 36.9431 19.8328C37.1263 18.3108 36.865 16.7692 36.1894 15.3863C35.5139 14.0035 34.4517 12.8359 33.1258 12.0187C31.7998 11.2015 30.2644 10.7681 28.697 10.7686C28.2857 10.7686 27.891 10.8299 27.4981 10.8858C27.6253 10.4674 27.7563 10.0418 27.9666 9.65948C28.1769 9.104 28.5052 8.62247 28.8316 8.13733C29.1046 7.61252 29.586 7.25723 29.9402 6.80817C30.3109 6.37172 30.8163 6.08136 31.2166 5.71886C31.6094 5.34013 32.1241 5.15076 32.5335 4.88384C32.9615 4.64398 33.334 4.37887 33.7325 4.25262L34.7266 3.85225C35.2818 3.63042 35.5991 3.50057 35.5991 3.50057L34.7063 0.0036087L33.6052 0.263309C33.2529 0.349876 32.8231 0.450874 32.3343 0.571709C31.8345 0.661882 31.3014 0.90896 30.7075 1.1344C30.1228 1.3923 29.4422 1.56363 28.8114 1.97662C28.1769 2.36978 27.4446 2.69802 26.799 3.22464C26.1737 3.76748 25.4193 4.2382 24.8623 4.92713C24.2536 5.57277 23.6523 6.25089 23.1857 7.02278C22.6452 7.7586 22.2782 8.56656 21.8908 9.36551C21.5404 10.1645 21.2582 10.9814 21.0276 11.775C20.5905 13.3656 20.3949 14.877 20.3193 16.1701C20.2566 17.465 20.2935 18.5416 20.371 19.3208C20.3985 19.6448 20.4379 19.9679 20.489 20.2892Z" fill="currentColor"/>
</svg>
